<?xml version="1.0" encoding="utf-8"?>
<!-- Generator: Adobe Illustrator 20.1.0, SVG Export Plug-In . SVG Version: 6.00 Build 0)  -->
<svg version="1.1" id="Layer_1" xmlns="http://www.w3.org/2000/svg" xmlns:xlink="http://www.w3.org/1999/xlink" x="0px" y="0px"
	 viewBox="0 0 61 36" style="enable-background:new 0 0 61 36;" xml:space="preserve">
<style type="text/css">
	.st0{fill:#FFFFFF;}
	.st1{fill-rule:evenodd;clip-rule:evenodd;fill:#FFFFFF;}
</style>
<path class="st0" d="M3.9,29.7v3c0,0.4-0.1,0.7-0.4,1c-0.2,0.2-0.6,0.3-1,0.3h-1c-0.4,0-0.7-0.1-1-0.3c-0.2-0.2-0.4-0.6-0.4-1v-7.3
	c0-0.4,0.1-0.7,0.4-0.9c0.2-0.2,0.6-0.4,1-0.4h1c0.4,0,0.7,0.1,1,0.4c0.2,0.2,0.4,0.5,0.4,0.9v3.1l-1.3-0.1v-2.9c0,0,0-0.1-0.1-0.1
	H1.7c0,0-0.1,0-0.1,0.1v7.2c0,0,0,0.1,0.1,0.1h0.8c0,0,0.1,0,0.1-0.1v-2.9H3.9z M8.5,34c-0.4,0-0.8-0.1-1-0.4
	c-0.3-0.3-0.4-0.6-0.4-0.9v-4.4c0-0.4,0.1-0.7,0.4-0.9c0.3-0.2,0.6-0.4,1-0.4h0.1c0.3,0,0.5,0.1,0.7,0.2V27h1.3v5.7h0.2l0.1,1.3H9.2
	v-0.5L8.9,34H8.5z M8.5,28.3C8.4,28.3,8.4,28.3,8.5,28.3l-0.1,4.3c0,0,0,0.1,0.1,0.1h0.7v-4.4H8.5z M15.4,27v0.6l0.4-0.6h0.9v1.4
	h-1.3V34h-1.3v-5.7h-0.3l0.1-1.3H15.4z M21.3,35.9h-1.3v-7.6h-0.3l0.1-1.3h1.5v0.5l0.4-0.5H22c0.4,0,0.8,0.1,1,0.4
	c0.3,0.2,0.4,0.6,0.4,0.9v4.4c0,0.4-0.1,0.7-0.4,0.9c-0.3,0.2-0.6,0.4-1,0.4h-0.1c-0.3,0-0.5-0.1-0.7-0.2V35.9z M22,28.3h-0.7v4.4
	H22c0,0,0.1,0,0.1-0.1L22,28.3C22.1,28.3,22.1,28.3,22,28.3z M26.6,25.5v-1.3h3.9v1.3h-1.3V34h-1.3v-8.5H26.6z M34.4,27v0.6l0.4-0.6
	h0.9v1.4h-1.3V34h-1.3v-5.7h-0.3l0.1-1.3H34.4z M40.1,34c-0.4,0-0.8-0.1-1-0.4c-0.3-0.3-0.4-0.6-0.4-0.9v-4.4c0-0.4,0.1-0.7,0.4-0.9
	c0.3-0.2,0.6-0.4,1-0.4h0.1c0.3,0,0.5,0.1,0.7,0.2V27h1.3v5.7h0.2l0.1,1.3h-1.7v-0.5L40.4,34H40.1z M40.1,28.3
	C40,28.3,40,28.3,40.1,28.3L40,32.6c0,0,0,0.1,0.1,0.1h0.7v-4.4H40.1z M45.2,27h1.2l0.8,4.5L48,27h1.2l-1.3,7h-1.3L45.2,27z
	 M52.2,32.8v-4.5c0-0.4,0.1-0.7,0.4-0.9c0.2-0.2,0.6-0.4,1-0.4h0.9c0.4,0,0.7,0.1,1,0.4c0.2,0.2,0.4,0.5,0.4,0.9V30h-1.3v-1.7
	c0,0,0-0.1-0.1-0.1h-0.7c0,0-0.1,0-0.1,0.1V30h2.2v1.3h-2.2v1.4c0,0,0,0.1,0.1,0.1h0.7c0,0,0.1,0,0.1-0.1v-0.8h1.3v0.8
	c0,0.4-0.1,0.7-0.4,1c-0.2,0.2-0.6,0.3-1,0.3h-0.9c-0.4,0-0.7-0.1-1-0.3C52.3,33.5,52.2,33.1,52.2,32.8z M60.3,24.2l0,8.5h0.3
	l0.1,1.3H59l0-8.5h-0.3l0.1-1.3H60.3z"/>
<g>
	<path class="st1" d="M-0.2,21.4c2.3-4.3,7-10.7,9-11.6c1.9-0.8,2.9,3.9,2.9,4.9c2.4-1.6,4.7-5.7,7-9c1.8-2.5,4.7-5.5,7.5-5.5
		c1.2,0,2.7,0.2,4,1.2c5.3,4,10.5,14,10.5,12.4C40.9,9,40,4.3,43.5,3.9c7.9,1.8,14.6,8.7,17.3,13.1c-1,1-15.8-11.4-15.8-9.2
		C45,11.5,46.1,18.8,42,19c-3.2,0.2-7.1-4-10.5-8.1c-1.9-2.2-2.9-5-5.4-5.6c-2.2-0.5-4.4,3.7-7.3,7.7c-1.7,2.3-2.9,4.5-6.4,5.2
		c-3.3,0.7-3.6-4.9-4.5-4C5.2,17.2-1.1,23.1-0.2,21.4L-0.2,21.4z"/>
</g>
</svg>
